<svg width="349" height="72" viewBox="0 0 349 72" fill="none" xmlns="http://www.w3.org/2000/svg">
<path d="M35.3623 44.0137H16.0996L12.4375 55H0.755371L20.604 1.67969H30.7847L50.7432 55H39.061L35.3623 44.0137ZM19.0659 35.1147H32.396L25.6943 15.1562L19.0659 35.1147ZM96.7759 37.2388C96.3608 42.9761 94.2368 47.4927 90.4038 50.7886C86.5952 54.0845 81.5659 55.7324 75.3159 55.7324C68.48 55.7324 63.0967 53.4375 59.166 48.8477C55.2598 44.2334 53.3066 37.9102 53.3066 29.8779V26.6187C53.3066 21.4917 54.21 16.9751 56.0166 13.0688C57.8232 9.1626 60.3989 6.17188 63.7437 4.09668C67.1128 1.99707 71.019 0.947266 75.4624 0.947266C81.6147 0.947266 86.5708 2.59521 90.3306 5.89111C94.0903 9.18701 96.2632 13.8135 96.8491 19.7705H85.8628C85.5942 16.3281 84.6299 13.8379 82.9697 12.2998C81.334 10.7373 78.8315 9.95605 75.4624 9.95605C71.8003 9.95605 69.0537 11.2744 67.2227 13.9111C65.416 16.5234 64.4883 20.5884 64.4395 26.106V30.1343C64.4395 35.896 65.3062 40.1074 67.0396 42.7686C68.7974 45.4297 71.5562 46.7603 75.3159 46.7603C78.7095 46.7603 81.2363 45.9912 82.8965 44.4531C84.5811 42.8906 85.5454 40.4858 85.7896 37.2388H96.7759ZM131.639 41.0107C131.639 38.9355 130.907 37.3486 129.442 36.25C127.977 35.127 125.34 33.9551 121.532 32.7344C117.723 31.4893 114.708 30.2686 112.486 29.0723C106.432 25.8008 103.404 21.394 103.404 15.8521C103.404 12.9712 104.21 10.4077 105.821 8.16162C107.457 5.89111 109.789 4.12109 112.816 2.85156C115.868 1.58203 119.286 0.947266 123.07 0.947266C126.878 0.947266 130.272 1.64307 133.25 3.03467C136.229 4.40186 138.536 6.34277 140.172 8.85742C141.832 11.3721 142.662 14.2285 142.662 17.4268H131.676C131.676 14.9854 130.907 13.0933 129.369 11.7505C127.831 10.3833 125.67 9.69971 122.887 9.69971C120.201 9.69971 118.114 10.2734 116.625 11.4209C115.135 12.5439 114.391 14.0332 114.391 15.8887C114.391 17.6221 115.257 19.0747 116.991 20.2466C118.749 21.4185 121.324 22.5171 124.718 23.5425C130.968 25.4224 135.521 27.7539 138.377 30.5371C141.234 33.3203 142.662 36.7871 142.662 40.9375C142.662 45.5518 140.917 49.1772 137.425 51.814C133.934 54.4263 129.234 55.7324 123.326 55.7324C119.225 55.7324 115.489 54.9878 112.12 53.4985C108.751 51.9849 106.175 49.9219 104.393 47.3096C102.635 44.6973 101.756 41.6699 101.756 38.2275H112.779C112.779 44.1113 116.295 47.0532 123.326 47.0532C125.938 47.0532 127.977 46.5283 129.442 45.4785C130.907 44.4043 131.639 42.915 131.639 41.0107Z" fill="#66D070"/>
<path d="M164.232 40.022L171.556 15.376H182.909L166.979 61.1523L166.1 63.2397C163.731 68.4155 159.825 71.0034 154.381 71.0034C152.843 71.0034 151.28 70.7715 149.693 70.3076V62.2876L151.305 62.3242C153.307 62.3242 154.796 62.019 155.772 61.4087C156.773 60.7983 157.555 59.7852 158.116 58.3691L159.361 55.1099L145.482 15.376H156.871L164.232 40.022ZM208.543 44.0503C208.543 42.7563 207.896 41.7432 206.603 41.0107C205.333 40.2539 203.282 39.5825 200.45 38.9966C191.026 37.019 186.314 33.0151 186.314 26.9849C186.314 23.4692 187.767 20.5396 190.672 18.1958C193.602 15.8276 197.423 14.6436 202.135 14.6436C207.164 14.6436 211.18 15.8276 214.183 18.1958C217.21 20.564 218.724 23.6401 218.724 27.4243H208.141C208.141 25.9106 207.652 24.6655 206.676 23.689C205.699 22.688 204.173 22.1875 202.098 22.1875C200.316 22.1875 198.937 22.5903 197.96 23.396C196.983 24.2017 196.495 25.2271 196.495 26.4722C196.495 27.644 197.044 28.5962 198.143 29.3286C199.266 30.0366 201.146 30.6592 203.783 31.1963C206.419 31.709 208.641 32.2949 210.448 32.9541C216.039 35.0049 218.834 38.5571 218.834 43.6108C218.834 47.2241 217.284 50.1538 214.183 52.3999C211.083 54.6216 207.079 55.7324 202.171 55.7324C198.851 55.7324 195.897 55.1465 193.309 53.9746C190.746 52.7783 188.731 51.1548 187.267 49.104C185.802 47.0288 185.069 44.7949 185.069 42.4023H195.104C195.201 44.2822 195.897 45.7227 197.191 46.7236C198.485 47.7246 200.218 48.2251 202.391 48.2251C204.417 48.2251 205.943 47.8467 206.969 47.0898C208.019 46.3086 208.543 45.2954 208.543 44.0503ZM238.353 5.63477V15.376H245.128V23.1396H238.353V42.915C238.353 44.3799 238.634 45.4297 239.195 46.0645C239.757 46.6992 240.831 47.0166 242.418 47.0166C243.59 47.0166 244.627 46.9312 245.531 46.7603V54.7803C243.456 55.415 241.319 55.7324 239.122 55.7324C231.7 55.7324 227.916 51.9849 227.77 44.4897V23.1396H221.983V15.376H227.77V5.63477H238.353ZM269.261 55.7324C263.451 55.7324 258.714 53.9502 255.052 50.3857C251.415 46.8213 249.596 42.0728 249.596 36.1401V35.1147C249.596 31.1353 250.365 27.583 251.903 24.458C253.441 21.3086 255.614 18.8916 258.421 17.207C261.253 15.498 264.476 14.6436 268.089 14.6436C273.509 14.6436 277.77 16.3525 280.87 19.7705C283.995 23.1885 285.558 28.0347 285.558 34.3091V38.6304H260.326C260.667 41.2183 261.693 43.2935 263.402 44.856C265.135 46.4185 267.32 47.1997 269.957 47.1997C274.034 47.1997 277.22 45.7227 279.515 42.7686L284.715 48.5913C283.128 50.8374 280.98 52.5952 278.27 53.8647C275.56 55.1099 272.557 55.7324 269.261 55.7324ZM268.053 23.2129C265.953 23.2129 264.244 23.9209 262.926 25.3369C261.632 26.7529 260.802 28.7793 260.436 31.416H275.157V30.5737C275.108 28.23 274.474 26.4233 273.253 25.1538C272.032 23.8599 270.299 23.2129 268.053 23.2129ZM301.524 15.376L301.854 19.8071C304.662 16.3647 308.458 14.6436 313.243 14.6436C318.346 14.6436 321.849 16.6577 323.753 20.686C326.537 16.6577 330.504 14.6436 335.655 14.6436C339.952 14.6436 343.15 15.9009 345.25 18.4155C347.35 20.9058 348.399 24.6655 348.399 29.6948V55H337.779V29.7314C337.779 27.4854 337.34 25.8496 336.461 24.8242C335.582 23.7744 334.032 23.2495 331.81 23.2495C328.636 23.2495 326.439 24.7632 325.218 27.7905L325.255 55H314.671V29.7681C314.671 27.4731 314.22 25.813 313.316 24.7876C312.413 23.7622 310.875 23.2495 308.702 23.2495C305.699 23.2495 303.526 24.4946 302.184 26.9849V55H291.6V15.376H301.524Z" fill="black"/>
</svg>
