<?xml version="1.0" encoding="iso-8859-1"?>
<!-- Generator: Adobe Illustrator 19.0.0, SVG Export Plug-In . SVG Version: 6.00 Build 0)  -->
<svg version="1.1" id="Capa_1" xmlns="http://www.w3.org/2000/svg" xmlns:xlink="http://www.w3.org/1999/xlink" x="0px" y="0px"
	 viewBox="0 0 512 512" style="enable-background:new 0 0 512 512;" xml:space="preserve">
<g>
	<g>
		<path d="M476.962,188.262l34.507-152.82c1.93-8.542-1.505-17.285-8.749-22.273h-0.001c-10.153-6.988,10.889-2.387-481.038-3.708
			c-14.677,0-24.059,13.122-21.155,25.981l34.507,152.82c1.029,4.559,3.448,8.462,6.741,11.345
			c-4.531,5.105-7.29,11.818-7.29,19.165v250.191c0,18.671,15.189,33.859,33.92,33.859h21.348c4.143,0,7.5-3.357,7.5-7.5
			c0-4.142-3.357-7.5-7.5-7.5H68.343c-10.398,0-18.858-8.46-18.858-18.92v-250.13c0-7.669,6.238-13.909,13.908-13.909H99.2
			c1.099,10.682,9.835,17.742,19.36,17.742c10.474,0,263.731,0,274.876,0c9.54,0,18.29-7.092,19.359-17.742h35.807
			c7.669,0,13.909,6.239,13.909,13.909v25.355c0,4.143,3.357,7.5,7.5,7.5s7.5-3.357,7.5-7.5v-25.355
			c0-7.347-2.759-14.059-7.29-19.165C473.514,196.725,475.934,192.821,476.962,188.262z M397.865,203.238
			c-0.039,2.559-2.421,4.367-4.859,4.367H118.991c-2.317,0-4.701-1.566-4.861-4.484c0.027-2.426,2.043-4.386,4.43-4.386
			c187.495,0.023,274.976-0.044,275.661,0.079C397.894,199.482,397.918,203.401,397.865,203.238z M462.331,184.957
			c-0.652,2.889-3.176,4.905-6.137,4.905c-10.111,0-38.456,0-48.599,0c-3.487-3.709-8.648-6.129-14.159-6.129H118.56
			c-5.507,0-10.643,2.39-14.159,6.129H63.393h-7.59c-2.961,0-5.484-2.017-6.137-4.905L15.159,32.138
			c-0.805-3.565,1.581-7.676,6.523-7.676c497.798,0.399,469.587-0.962,472.533,1.064c2.164,1.491,3.193,4.086,2.623,6.612
			L462.331,184.957z"/>
	</g>
</g>
<g>
	<g>
		<path d="M430.836,229.835c-33.95,0-313.05,0-348.207,0c-8.783,0-15.93,7.146-15.93,15.93v15.865v23.803v23.802v23.803v18.429
			c0,8.02,6.525,14.547,14.547,14.547c20.895-0.002,329.871-0.002,347.395-0.002c9.185,0,16.658-7.473,16.658-16.658v-16.317
			c0-12.352,0-80.166,0-88.739C445.298,236.322,438.811,229.835,430.836,229.835z M379.189,244.834h18.054v9.293h-18.054V244.834z
			 M379.189,269.128c16.268,0,34.841,0,51.108,0v8.802c-12.903,0-46.251,0-51.108,0V269.128z M380.716,292.931v8.801
			c-6.314,0-11.74,0-18.054,0v-8.801C368.976,292.931,374.401,292.931,380.716,292.931z M346.135,244.834h18.054v9.293h-18.054
			V244.834z M346.135,269.128h18.054v8.802c-6.314,0-11.74,0-18.054,0V269.128z M347.661,292.931v8.801c-6.314,0-11.74,0-18.054,0
			v-8.801C335.922,292.931,341.347,292.931,347.661,292.931z M313.08,244.834L313.08,244.834h18.055v9.293H313.08V244.834z
			 M313.08,269.128L313.08,269.128h18.055v8.802c-6.314,0-11.74,0-18.055,0V269.128z M296.552,301.733v-8.801
			c6.315,0,11.741,0,18.055,0v8.801C308.293,301.733,302.866,301.733,296.552,301.733z M298.079,316.733v8.802h-18.054v-8.802
			C286.34,316.733,291.765,316.733,298.079,316.733z M280.025,244.834h18.054v9.293h-18.054V244.834z M280.025,269.128h18.054v8.802
			c-6.314,0-11.74,0-18.054,0V269.128z M281.553,292.931v8.801h-9.026H263.5v-8.801h9.026H281.553z M230.444,301.733v-8.801
			c6.314,0,11.739,0,18.054,0v8.801C242.184,301.733,236.759,301.733,230.444,301.733z M231.97,316.733v8.802h-18.054v-8.802
			C220.231,316.733,225.657,316.733,231.97,316.733z M246.971,316.733c6.314,0,11.74,0,18.054,0v8.802h-18.054V316.733z
			 M246.971,244.834h18.054v9.293h-18.054V244.834z M246.971,269.128h18.054v8.802c-6.314,0-11.74,0-18.054,0V269.128z
			 M213.918,244.834h18.054v9.293h-18.054V244.834z M213.918,269.128h18.054v8.802c-6.314,0-11.74,0-18.054,0V269.128z
			 M215.444,292.931v8.801c-6.314,0-11.74,0-18.055,0v-8.801h9.027H215.444z M165.861,325.536h-18.053v-8.802h9.026h9.026V325.536z
			 M164.336,301.733v-8.801c6.314,0,11.739,0,18.054,0v8.801C176.075,301.733,170.649,301.733,164.336,301.733z M180.862,316.733
			c6.314,0,11.74,0,18.055,0v8.802h-18.055V316.733z M180.862,244.834h18.055v9.293h-18.055V244.834z M180.862,269.128h18.055v8.802
			c-6.314,0-11.74,0-18.055,0V269.128z M147.808,244.834h18.054v9.293h-18.054V244.834z M147.808,269.128h18.054v8.802
			c-6.314,0-11.74,0-18.054,0V269.128z M114.755,244.834h18.054v9.293h-18.054V244.834z M114.755,269.128h18.054v8.802
			c-6.314,0-11.739,0-18.054,0V269.128z M81.699,245.763c0-0.512,0.417-0.929,0.929-0.929h17.126v9.293H81.699V245.763z
			 M81.699,269.128h18.055v8.802H81.699V269.128z M81.699,292.931h25.555h9.026v8.801H81.699V292.931z M99.754,351.01H81.699
			v-10.474h18.055V351.01z M81.699,325.536v-8.802h42.082h9.026v8.802h-25.553H81.699z M132.808,351.01L132.808,351.01h-18.054
			v-10.474h18.054V351.01z M131.281,301.733v-8.801h9.026h9.026v8.801h-9.026H131.281z M165.862,351.01h-18.054v-10.474h18.054
			V351.01z M331.135,351.01H180.862v-10.474c26.703,0,110.418,0,150.272,0V351.01z M331.135,325.536H313.08v-8.802
			c6.314,0,11.74,0,18.055,0V325.536z M364.188,351.01h-18.054v-10.474h18.054V351.01z M364.188,325.536h-18.054v-8.802
			c6.314,0,11.739,0,18.054,0V325.536z M397.242,351.01h-18.054v-10.474h18.054V351.01z M428.641,351.01h-16.398v-10.474h18.055
			v8.817h0C430.298,350.267,429.555,351.01,428.641,351.01z M430.298,325.536c-16.267,0-34.841,0-51.108,0v-8.802h9.026h42.082
			V325.536z M430.298,301.733h-34.581v-8.801h34.581V301.733z M430.298,254.128h-18.055v-9.293h18.055V254.128z"/>
	</g>
</g>
<g>
	<g>
		<path d="M320.675,375.045H191.322c-7.829,0-14.199,6.369-14.199,14.199v56.239c0,7.828,6.369,14.198,14.199,14.198h129.353
			c7.829,0,14.199-6.369,14.199-14.198v-56.239C334.874,381.414,328.504,375.045,320.675,375.045z M319.873,444.68H192.124v-54.635
			h127.749V444.68z"/>
	</g>
</g>
<g>
	<g>
		<path d="M305.579,162.281h-99.162c-4.143,0-7.5,3.357-7.5,7.5c0,4.143,3.357,7.5,7.5,7.5h99.162c4.143,0,7.5-3.357,7.5-7.5
			C313.08,165.638,309.723,162.281,305.579,162.281z"/>
	</g>
</g>
<g>
	<g>
		<path d="M467.806,37.043H44.191c-7.711,0-13.414,7.154-11.716,14.659l21.436,94.934c1.245,5.515,6.064,9.366,11.717,9.366h380.741
			c5.653,0,10.472-3.852,11.718-9.366l21.437-94.933C481.223,44.182,475.501,37.043,467.806,37.043z M461.048,65.414H124.755
			c-4.143,0-7.5,3.357-7.5,7.5s3.357,7.5,7.5,7.5h332.907l-13.682,60.586H68.017L54.336,80.415h35.417c4.143,0,7.5-3.357,7.5-7.5
			s-3.357-7.5-7.5-7.5H50.949l-3.02-13.371h416.138L461.048,65.414z"/>
	</g>
</g>
<g>
	<g>
		<path d="M470.012,271.628c-4.143,0-7.5,3.357-7.5,7.5v189.834c0,10.398-8.459,18.859-18.92,18.859H313.08v-0.974
			c0-10.753-8.748-19.501-19.501-19.501h-75.161c-10.752,0-19.501,8.748-19.501,19.501v0.974h-74.162c-4.143,0-7.5,3.358-7.5,7.5
			c0,4.143,3.357,7.5,7.5,7.5c17.42,0,301.482,0,318.899,0c18.67,0,33.858-15.189,33.858-33.92V279.129
			C477.513,274.987,474.154,271.628,470.012,271.628z M298.079,487.822h-84.161v-0.974c0-2.439,2.061-4.5,4.5-4.5h75.161
			c2.439,0,4.5,2.061,4.5,4.5V487.822z"/>
	</g>
</g>
<g>
</g>
<g>
</g>
<g>
</g>
<g>
</g>
<g>
</g>
<g>
</g>
<g>
</g>
<g>
</g>
<g>
</g>
<g>
</g>
<g>
</g>
<g>
</g>
<g>
</g>
<g>
</g>
<g>
</g>
</svg>
